<svg xmlns="http://www.w3.org/2000/svg" width="31" height="36" fill="none" viewBox="0 0 31 36">
  <g clip-path="url(#a)">
    <path fill="#F9BFC0" d="m7.48 0 23.44 13.35v8.89L7.48 35.59 0 30.82V4.76L7.48 0Z"/>
    <path fill="#F16162" d="M24.58 17.79 4.97 6.47v22.65l19.61-11.33Z"/>
    <path fill="#F69EA0" d="M7.48 35.59V0L0 4.76v26.06l7.48 4.77Z"/>
    <path fill="#F9BFC0" d="m0 4.76 30.92 17.48v-8.89L7.48 0 0 4.76Z"/>
    <path fill="#FBD2D4" d="m0 30.82 30.92-17.47v8.89L7.48 35.59 0 30.82Z"/>
    <path fill="#F9BFC0" d="M9.47 14.18h3.55c2.07 0 3.32 1.23 3.32 3v.02c0 2.01-1.56 3.05-3.51 3.05h-1.45v2.6H9.47v-8.67Zm3.42 4.38c.95 0 1.51-.57 1.51-1.31v-.02c0-.86-.6-1.31-1.55-1.31h-1.48v2.65h1.52v-.01Z"/>
  </g>
  <defs>
    <clipPath id="a">
      <path fill="#fff" d="M0 0h30.92v35.59H0z"/>
    </clipPath>
  </defs>
</svg>
