<svg xmlns="http://www.w3.org/2000/svg" width="828" height="216" fill="none" viewBox="0 0 828 216">
  <g clip-path="url(#a)">
    <path fill="#F9BFC0" d="M45.48 0 188 81.023v53.954L45.48 216 0 187.05V28.889L45.48 0Z"/>
    <path fill="#F16162" d="M149.451 107.97 30.219 39.267v137.466L149.45 107.97Z"/>
    <path fill="#F69EA0" d="M45.48 216V0L0 28.889V187.05L45.48 216Z"/>
    <path fill="#F9BFC0" d="m0 28.889 188 106.088V81.023L45.48 0 0 28.889Z"/>
    <path fill="#FBD2D4" d="M0 187.05 188 81.023v53.954L45.48 216 0 187.05Z"/>
    <path fill="#F9BFC0" d="M57.58 86.06h21.584c12.586 0 20.187 7.465 20.187 18.207v.122c0 12.199-9.486 18.511-21.342 18.511h-8.816v15.779H57.58V86.06Zm20.794 26.583c5.776 0 9.181-3.46 9.181-7.951v-.121c0-5.22-3.648-7.95-9.424-7.95h-8.999v16.083h9.242v-.061Z"/>
  </g>
  <path fill="#000" d="M231.091 154V60.91h36.727c7.061 0 13.076 1.348 18.046 4.044 4.969 2.667 8.757 6.38 11.363 11.137 2.637 4.727 3.955 10.182 3.955 16.364 0 6.181-1.334 11.636-4 16.363-2.667 4.727-6.53 8.409-11.591 11.046-5.03 2.636-11.121 3.954-18.273 3.954h-23.409v-15.773h20.227c3.788 0 6.909-.651 9.364-1.954 2.485-1.333 4.333-3.167 5.545-5.5 1.243-2.364 1.864-5.076 1.864-8.136 0-3.091-.621-5.788-1.864-8.091-1.212-2.334-3.06-4.137-5.545-5.41-2.485-1.302-5.636-1.954-9.455-1.954h-13.272v77h-19.682Zm112.932 1.364c-7.061 0-13.167-1.5-18.318-4.5-5.122-3.031-9.076-7.243-11.864-12.637-2.788-5.424-4.182-11.712-4.182-18.863 0-7.212 1.394-13.516 4.182-18.909 2.788-5.425 6.742-9.637 11.864-12.637 5.151-3.03 11.257-4.545 18.318-4.545 7.06 0 13.151 1.515 18.272 4.545 5.152 3 9.122 7.212 11.91 12.637 2.787 5.393 4.181 11.697 4.181 18.909 0 7.151-1.394 13.439-4.181 18.863-2.788 5.394-6.758 9.606-11.91 12.637-5.121 3-11.212 4.5-18.272 4.5Zm.091-15c3.212 0 5.894-.909 8.045-2.728 2.152-1.848 3.773-4.363 4.864-7.545 1.121-3.182 1.682-6.803 1.682-10.864 0-4.06-.561-7.682-1.682-10.863-1.091-3.182-2.712-5.697-4.864-7.546-2.151-1.848-4.833-2.772-8.045-2.772-3.243 0-5.97.924-8.182 2.772-2.182 1.849-3.834 4.364-4.955 7.546-1.091 3.181-1.636 6.803-1.636 10.863 0 4.061.545 7.682 1.636 10.864 1.121 3.182 2.773 5.697 4.955 7.545 2.212 1.819 4.939 2.728 8.182 2.728Zm72.591 14.772c-5.303 0-10.107-1.363-14.41-4.091-4.272-2.757-7.666-6.803-10.181-12.136-2.485-5.364-3.728-11.939-3.728-19.727 0-8 1.288-14.652 3.864-19.955 2.576-5.333 6-9.318 10.273-11.954 4.303-2.667 9.015-4 14.136-4 3.909 0 7.167.666 9.773 2 2.636 1.303 4.757 2.94 6.363 4.909 1.637 1.94 2.879 3.848 3.728 5.727h.591v-35h19.318V154h-19.091v-11.182h-.818c-.909 1.94-2.197 3.864-3.864 5.773-1.636 1.879-3.773 3.439-6.409 4.682-2.606 1.242-5.788 1.863-9.545 1.863Zm6.136-15.409c3.121 0 5.757-.848 7.909-2.545 2.182-1.727 3.848-4.137 5-7.227 1.182-3.091 1.773-6.713 1.773-10.864 0-4.152-.576-7.758-1.728-10.818-1.151-3.061-2.818-5.425-5-7.091-2.181-1.667-4.833-2.5-7.954-2.5-3.182 0-5.864.864-8.046 2.591-2.181 1.727-3.833 4.121-4.954 7.182-1.121 3.06-1.682 6.606-1.682 10.636 0 4.061.561 7.651 1.682 10.773 1.151 3.091 2.803 5.515 4.954 7.272 2.182 1.728 4.864 2.591 8.046 2.591ZM554.852 93.5h-19.909c-.363-2.576-1.106-4.864-2.227-6.864a17.465 17.465 0 0 0-4.318-5.181c-1.758-1.425-3.788-2.516-6.091-3.273-2.273-.758-4.743-1.136-7.409-1.136-4.818 0-9.015 1.196-12.591 3.59-3.576 2.364-6.349 5.819-8.318 10.364-1.97 4.515-2.955 10-2.955 16.455 0 6.636.985 12.212 2.955 16.727 2 4.515 4.788 7.924 8.363 10.227 3.576 2.303 7.712 3.455 12.409 3.455 2.637 0 5.076-.349 7.319-1.046 2.272-.697 4.287-1.712 6.045-3.045a17.55 17.55 0 0 0 4.364-4.955c1.181-1.939 2-4.151 2.454-6.636l19.909.091c-.515 4.272-1.803 8.394-3.863 12.363-2.031 3.94-4.773 7.47-8.228 10.591-3.424 3.091-7.515 5.546-12.272 7.364-4.728 1.788-10.076 2.682-16.046 2.682-8.303 0-15.727-1.879-22.273-5.637-6.515-3.757-11.666-9.197-15.454-16.318-3.758-7.121-5.636-15.742-5.636-25.863 0-10.152 1.909-18.788 5.727-25.91 3.818-7.12 9-12.545 15.545-16.272 6.546-3.758 13.909-5.637 22.091-5.637 5.394 0 10.394.758 15 2.273 4.637 1.515 8.743 3.727 12.318 6.636 3.576 2.88 6.485 6.41 8.728 10.591 2.272 4.182 3.727 8.97 4.363 14.364Zm33.659 61.818c-4.454 0-8.424-.773-11.909-2.318-3.485-1.576-6.242-3.894-8.272-6.955-2-3.09-3-6.939-3-11.545 0-3.879.712-7.136 2.136-9.773 1.424-2.636 3.364-4.757 5.818-6.363 2.455-1.606 5.243-2.819 8.364-3.637a63.713 63.713 0 0 1 9.909-1.727c4.06-.424 7.333-.818 9.818-1.182 2.485-.394 4.288-.97 5.409-1.727 1.121-.758 1.682-1.879 1.682-3.364v-.272c0-2.879-.909-5.107-2.727-6.682-1.788-1.576-4.334-2.364-7.637-2.364-3.485 0-6.257.773-8.318 2.318-2.061 1.515-3.424 3.425-4.091 5.728L567.784 104c.909-4.242 2.697-7.91 5.364-11 2.666-3.121 6.106-5.515 10.318-7.182 4.242-1.697 9.151-2.545 14.727-2.545 3.879 0 7.591.454 11.137 1.363 3.575.91 6.742 2.319 9.5 4.228a20.55 20.55 0 0 1 6.59 7.363c1.607 2.97 2.41 6.531 2.41 10.682V154h-18.364v-9.682h-.546a19.7 19.7 0 0 1-4.5 5.773c-1.878 1.636-4.136 2.924-6.772 3.864-2.637.909-5.682 1.363-9.137 1.363Zm5.546-13.363c2.848 0 5.363-.561 7.545-1.682 2.182-1.152 3.894-2.697 5.137-4.637 1.242-1.939 1.863-4.136 1.863-6.591v-7.409c-.606.394-1.439.758-2.5 1.091-1.03.303-2.197.591-3.5.864-1.303.242-2.606.47-3.909.682-1.303.182-2.485.348-3.545.5-2.273.333-4.258.863-5.955 1.591-1.697.727-3.015 1.712-3.954 2.954-.94 1.212-1.409 2.727-1.409 4.546 0 2.636.954 4.651 2.863 6.045 1.94 1.364 4.394 2.046 7.364 2.046Zm106.886-37.864-17.727 1.091a9.165 9.165 0 0 0-1.955-4.091c-1-1.242-2.318-2.227-3.954-2.955-1.606-.757-3.53-1.136-5.773-1.136-3 0-5.53.636-7.591 1.91-2.06 1.242-3.091 2.908-3.091 4.999 0 1.667.667 3.076 2 4.227 1.334 1.152 3.621 2.076 6.864 2.773l12.636 2.546c6.788 1.393 11.849 3.636 15.182 6.727s5 7.151 5 12.182c0 4.575-1.348 8.591-4.045 12.045-2.667 3.455-6.334 6.152-11 8.091-4.637 1.909-9.985 2.864-16.046 2.864-9.242 0-16.606-1.925-22.091-5.773-5.454-3.879-8.651-9.152-9.591-15.818l19.046-1c.576 2.818 1.97 4.969 4.182 6.454 2.212 1.455 5.045 2.182 8.5 2.182 3.394 0 6.121-.651 8.181-1.954 2.091-1.334 3.152-3.046 3.182-5.137-.03-1.757-.772-3.197-2.227-4.318-1.455-1.152-3.697-2.03-6.727-2.636l-12.091-2.409c-6.818-1.364-11.894-3.728-15.227-7.091-3.303-3.364-4.955-7.652-4.955-12.864 0-4.485 1.212-8.349 3.636-11.59 2.455-3.243 5.894-5.743 10.319-7.5 4.454-1.758 9.666-2.637 15.636-2.637 8.818 0 15.757 1.863 20.818 5.59 5.091 3.728 8.061 8.804 8.909 15.228Zm50.921-19.91v14.546h-42.046V84.182h42.046Zm-32.5-16.727h19.363v65.091c0 1.788.273 3.182.818 4.182.546.97 1.303 1.652 2.273 2.046 1 .394 2.152.591 3.455.591.909 0 1.818-.076 2.727-.228.909-.181 1.606-.318 2.091-.409l3.045 14.409c-.969.303-2.333.652-4.091 1.046-1.757.424-3.893.682-6.409.773-4.666.181-8.757-.44-12.272-1.864-3.485-1.424-6.197-3.636-8.137-6.636-1.939-3-2.894-6.788-2.863-11.364V67.454Zm102.329 36.637-17.727 1.091a9.165 9.165 0 0 0-1.955-4.091c-1-1.242-2.318-2.227-3.954-2.955-1.606-.757-3.53-1.136-5.773-1.136-3 0-5.53.636-7.591 1.91-2.06 1.242-3.091 2.908-3.091 4.999 0 1.667.667 3.076 2 4.227 1.334 1.152 3.621 2.076 6.864 2.773l12.636 2.546c6.788 1.393 11.849 3.636 15.182 6.727s5 7.151 5 12.182c0 4.575-1.348 8.591-4.045 12.045-2.667 3.455-6.334 6.152-11 8.091-4.637 1.909-9.985 2.864-16.046 2.864-9.242 0-16.606-1.925-22.091-5.773-5.454-3.879-8.651-9.152-9.591-15.818l19.046-1c.576 2.818 1.97 4.969 4.182 6.454 2.212 1.455 5.045 2.182 8.5 2.182 3.394 0 6.121-.651 8.181-1.954 2.091-1.334 3.152-3.046 3.182-5.137-.03-1.757-.772-3.197-2.227-4.318-1.455-1.152-3.697-2.03-6.727-2.636l-12.091-2.409c-6.818-1.364-11.894-3.728-15.227-7.091-3.303-3.364-4.955-7.652-4.955-12.864 0-4.485 1.212-8.349 3.636-11.59 2.455-3.243 5.894-5.743 10.319-7.5 4.454-1.758 9.666-2.637 15.636-2.637 8.818 0 15.757 1.863 20.818 5.59 5.091 3.728 8.061 8.804 8.909 15.228Z"/>
  <defs>
    <clipPath id="a">
      <path fill="#fff" d="M0 0h188v216H0z"/>
    </clipPath>
  </defs>
</svg>
